<svg width="32" height="32" viewBox="0 0 32 32" fill="none" xmlns="http://www.w3.org/2000/svg">
<path d="M28.8646 21.8218L24.34 21.3052C23.8079 21.2427 23.2687 21.3016 22.7627 21.4775C22.2567 21.6534 21.7971 21.9416 21.4185 22.3206L18.1408 25.5983C13.0842 23.0259 8.97404 18.9157 6.40164 13.8591L9.69716 10.5635C10.4631 9.79755 10.8372 8.72873 10.7125 7.64209L10.1959 3.15303C10.0953 2.28388 9.67839 1.48215 9.02463 0.900654C8.37086 0.319161 7.52598 -0.00142522 6.65103 4.76331e-06H3.56927C1.55633 4.76331e-06 -0.118152 1.67449 0.0065438 3.68745C0.950666 18.9004 13.1174 31.0493 28.3124 31.9935C30.3253 32.1182 31.9998 30.4437 31.9998 28.4307V25.3489C32.0176 23.5498 30.6638 22.0356 28.8646 21.8218Z" fill="url(#paint0_linear_363_139)"/>
<defs>
<linearGradient id="paint0_linear_363_139" x1="0.235169" y1="1.94416e-07" x2="21.2083" y2="37.8496" gradientUnits="userSpaceOnUse">
<stop stop-color="#51B168"/>
<stop offset="1" stop-color="#156B56"/>
</linearGradient>
</defs>
</svg>
