<svg width="32" height="32" viewBox="0 0 32 32" fill="none" xmlns="http://www.w3.org/2000/svg">
<rect width="32" height="32" rx="6" fill="url(#paint0_linear_535_222)"/>
<path d="M16 27C14.4783 27 13.0483 26.7111 11.71 26.1332C10.3717 25.5553 9.2075 24.7718 8.2175 23.7825C7.2275 22.7932 6.44393 21.6291 5.8668 20.29C5.28967 18.9509 5.00073 17.5209 5 16C4.99927 14.4791 5.2882 13.0491 5.8668 11.71C6.4454 10.3709 7.22897 9.20677 8.2175 8.2175C9.20603 7.22823 10.3702 6.44467 11.71 5.8668C13.0498 5.28893 14.4798 5 16 5C17.5202 5 18.9502 5.28893 20.29 5.8668C21.6298 6.44467 22.794 7.22823 23.7825 8.2175C24.771 9.20677 25.555 10.3709 26.1343 11.71C26.7136 13.0491 27.0022 14.4791 27 16C26.9978 17.5209 26.7089 18.9509 26.1332 20.29C25.5575 21.6291 24.774 22.7932 23.7825 23.7825C22.791 24.7718 21.6269 25.5557 20.29 26.1343C18.9531 26.7129 17.5231 27.0015 16 27ZM16 24.8C18.4567 24.8 20.5375 23.9475 22.2425 22.2425C23.9475 20.5375 24.8 18.4567 24.8 16C24.8 15.8717 24.7956 15.7386 24.7868 15.6007C24.778 15.4628 24.7732 15.3484 24.7725 15.2575C24.6808 15.7892 24.4333 16.2292 24.03 16.5775C23.6267 16.9258 23.15 17.1 22.6 17.1H20.4C19.795 17.1 19.2773 16.8848 18.8468 16.4543C18.4163 16.0238 18.2007 15.5057 18.2 14.9V13.8H13.8V11.6C13.8 10.995 14.0156 10.4773 14.4468 10.0468C14.878 9.61633 15.3957 9.40073 16 9.4H17.1C17.1 8.97833 17.2148 8.60727 17.4443 8.2868C17.6738 7.96633 17.9532 7.7049 18.2825 7.5025C17.9158 7.41083 17.5448 7.3375 17.1693 7.2825C16.7938 7.2275 16.4041 7.2 16 7.2C13.5433 7.2 11.4625 8.0525 9.7575 9.7575C8.0525 11.4625 7.2 13.5433 7.2 16H12.7C13.91 16 14.9458 16.4308 15.8075 17.2925C16.6692 18.1542 17.1 19.19 17.1 20.4V21.5H13.8V24.525C14.1667 24.6167 14.5289 24.6856 14.8868 24.7318C15.2447 24.778 15.6157 24.8007 16 24.8Z" fill="#F5F5F5"/>
<defs>
<linearGradient id="paint0_linear_535_222" x1="0.235169" y1="1.94416e-07" x2="21.2083" y2="37.8496" gradientUnits="userSpaceOnUse">
<stop stop-color="#51B168"/>
<stop offset="1" stop-color="#156B56"/>
</linearGradient>
</defs>
</svg>
