<svg width="32" height="32" viewBox="0 0 32 32" fill="none" xmlns="http://www.w3.org/2000/svg">
<rect width="32" height="32" rx="6" fill="url(#paint0_linear_535_209)"/>
<path d="M20.2109 20.8887H25.0142C24.6109 15.5659 22.3192 12.2598 19.3798 10.3043L20.7181 7.38314C20.7586 7.29045 20.7754 7.18917 20.7671 7.08838C20.7588 6.98758 20.7255 6.89043 20.6704 6.80564C20.6153 6.72084 20.54 6.65105 20.4513 6.60252C20.3625 6.55399 20.2632 6.52825 20.162 6.52759H11.7837C11.6826 6.52825 11.5832 6.55399 11.4944 6.60252C11.4057 6.65105 11.3304 6.72084 11.2753 6.80564C11.2202 6.89043 11.187 6.98758 11.1786 7.08838C11.1703 7.18917 11.1871 7.29045 11.2276 7.38314L11.9609 8.97203H18.1454L17.5954 10.1943H16.4648C16.8097 11.1228 17.0635 12.0827 17.2226 13.0604C17.3246 13.667 17.3899 14.2792 17.4181 14.8937L16.4526 15.572C16.4553 14.7816 16.3899 13.9924 16.257 13.2131C16.0884 12.176 15.7971 11.1626 15.3892 10.1943H14.7781C14.2137 10.9065 13.7069 11.6626 13.2626 12.4554C12.9041 13.1352 12.5997 13.8422 12.352 14.5698L11.5148 14.0137C11.7597 13.3106 12.0601 12.6281 12.4131 11.9726C12.7706 11.3583 13.1623 10.7646 13.5865 10.1943H12.517L12.5659 10.2981C9.32702 12.4554 6.86424 16.2443 6.86424 22.5693C6.85599 22.7022 6.87416 22.8355 6.9177 22.9614C6.96125 23.0873 7.02931 23.2033 7.11795 23.3027C7.20659 23.4022 7.31406 23.4831 7.43414 23.5407C7.55423 23.5984 7.68455 23.6317 7.81758 23.6387H12.7065C12.4965 23.4202 12.3516 23.1476 12.2879 22.8514C12.2241 22.5552 12.2442 22.2471 12.3457 21.9616C12.4472 21.6761 12.6262 21.4245 12.8626 21.235C13.099 21.0455 13.3835 20.9256 13.6842 20.8887C13.5379 20.6405 13.4599 20.3579 13.4581 20.0698C13.4581 19.6322 13.632 19.2125 13.9414 18.9031C14.2508 18.5936 14.6705 18.4198 15.1081 18.4198H18.7748C19.2124 18.4198 19.6321 18.5936 19.9415 18.9031C20.251 19.2125 20.4248 19.6322 20.4248 20.0698C20.4279 20.357 20.3541 20.6397 20.2109 20.8887Z" fill="#F5F5F5"/>
<path d="M18.2004 22.4165C18.2004 22.2544 18.136 22.099 18.0214 21.9844C17.9068 21.8698 17.7514 21.8054 17.5893 21.8054H13.9226C13.7606 21.8054 13.6051 21.8698 13.4905 21.9844C13.3759 22.099 13.3115 22.2544 13.3115 22.4165C13.3115 22.5786 13.3759 22.734 13.4905 22.8486C13.6051 22.9632 13.7606 23.0276 13.9226 23.0276H17.5893C17.7514 23.0276 17.9068 22.9632 18.0214 22.8486C18.136 22.734 18.2004 22.5786 18.2004 22.4165Z" fill="#F5F5F5"/>
<path d="M18.7739 19.3611H15.1072C14.9451 19.3611 14.7897 19.4255 14.6751 19.5401C14.5605 19.6547 14.4961 19.8101 14.4961 19.9722C14.4961 20.1343 14.5605 20.2897 14.6751 20.4043C14.7897 20.5189 14.9451 20.5833 15.1072 20.5833H18.7739C18.9359 20.5833 19.0914 20.5189 19.206 20.4043C19.3206 20.2897 19.385 20.1343 19.385 19.9722C19.385 19.8101 19.3206 19.6547 19.206 19.5401C19.0914 19.4255 18.9359 19.3611 18.7739 19.3611Z" fill="#F5F5F5"/>
<path d="M18.4438 24.2501H14.7771C14.615 24.2501 14.4596 24.3145 14.345 24.4291C14.2304 24.5437 14.166 24.6992 14.166 24.8612C14.166 25.0233 14.2304 25.1787 14.345 25.2934C14.4596 25.408 14.615 25.4723 14.7771 25.4723H18.4438C18.6059 25.4723 18.7613 25.408 18.8759 25.2934C18.9905 25.1787 19.0549 25.0233 19.0549 24.8612C19.0549 24.6992 18.9905 24.5437 18.8759 24.4291C18.7613 24.3145 18.6059 24.2501 18.4438 24.2501Z" fill="#F5F5F5"/>
<path d="M24.9826 24.25H20.7049C20.5428 24.25 20.3873 24.3144 20.2727 24.429C20.1581 24.5436 20.0938 24.699 20.0938 24.8611C20.0938 25.0232 20.1581 25.1786 20.2727 25.2932C20.3873 25.4078 20.5428 25.4722 20.7049 25.4722H24.9826C25.1447 25.4722 25.3002 25.4078 25.4148 25.2932C25.5294 25.1786 25.5938 25.0232 25.5938 24.8611C25.5938 24.699 25.5294 24.5436 25.4148 24.429C25.3002 24.3144 25.1447 24.25 24.9826 24.25Z" fill="#F5F5F5"/>
<path d="M25.5949 21.8054H21.3172C21.1551 21.8054 20.9997 21.8698 20.885 21.9844C20.7704 22.099 20.7061 22.2545 20.7061 22.4165C20.7061 22.5786 20.7704 22.734 20.885 22.8487C20.9997 22.9633 21.1551 23.0276 21.3172 23.0276H25.5949C25.757 23.0276 25.9125 22.9633 26.0271 22.8487C26.1417 22.734 26.2061 22.5786 26.2061 22.4165C26.2061 22.2545 26.1417 22.099 26.0271 21.9844C25.9125 21.8698 25.757 21.8054 25.5949 21.8054Z" fill="#F5F5F5"/>
<defs>
<linearGradient id="paint0_linear_535_209" x1="0.235169" y1="1.94416e-07" x2="21.2083" y2="37.8496" gradientUnits="userSpaceOnUse">
<stop stop-color="#51B168"/>
<stop offset="1" stop-color="#156B56"/>
</linearGradient>
</defs>
</svg>
