<svg width="32" height="32" viewBox="0 0 32 32" fill="none" xmlns="http://www.w3.org/2000/svg">
<rect width="32" height="32" rx="6" fill="url(#paint0_linear_535_203)"/>
<path d="M26.6308 18.6369L23.9147 23.4142C23.3824 24.3631 22.3937 24.8596 21.3942 24.7934H19.2213V27L16.5053 22.0351L19.2213 17.0702V19.2768H22.2851L19.8732 15.0291L24.5774 12.2708L26.533 15.7131C27.0979 16.5627 27.174 17.6991 26.6308 18.6369ZM12.9309 5H18.3631C19.4278 5 20.3512 5.62889 20.7967 6.5336L21.8831 8.45336L23.7626 7.35005L20.8944 12.2156L15.2993 12.3149L17.1789 11.2116L15.647 8.50853L13.246 12.7563L8.53089 9.99799L10.4865 6.55567C10.9319 5.63992 11.8554 5 12.9309 5ZM8.41138 23.4253L5.69531 18.6479C5.16296 17.7101 5.23901 16.5848 5.79309 15.7352L6.87952 13.8265L5 12.7232L10.5842 12.8114L13.4633 17.6881L11.5838 16.5848L10.0519 19.2768H14.8756V24.7934H10.9645C10.4555 24.8308 9.94639 24.7224 9.49506 24.4805C9.04372 24.2387 8.66826 23.8731 8.41138 23.4253Z" fill="#F5F5F5"/>
<defs>
<linearGradient id="paint0_linear_535_203" x1="0.235169" y1="1.94416e-07" x2="21.2083" y2="37.8496" gradientUnits="userSpaceOnUse">
<stop stop-color="#51B168"/>
<stop offset="1" stop-color="#156B56"/>
</linearGradient>
</defs>
</svg>
