                <svg
                  width="30"
                  height="30"
                  viewBox="0 0 30 30"
                  fill="none"
                  xmlns="http://www.w3.org/2000/svg"
                >
                  <path
                    d="M9.64151 2.33667H20.0247C23.9802 2.33667 27.194 5.55051 27.194 9.50601V19.8892C27.194 21.7906 26.4387 23.6142 25.0942 24.9587C23.7497 26.3032 21.9261 27.0585 20.0247 27.0585H9.64151C5.68601 27.0585 2.47217 23.8447 2.47217 19.8892V9.50601C2.47217 7.60459 3.22751 5.78104 4.57202 4.43652C5.91653 3.09201 7.74008 2.33667 9.64151 2.33667ZM9.39429 4.80886C8.2141 4.80886 7.08224 5.27769 6.24771 6.11221C5.41319 6.94674 4.94436 8.0786 4.94436 9.2588V20.1364C4.94436 22.5962 6.93447 24.5864 9.39429 24.5864H20.2719C21.4521 24.5864 22.584 24.1175 23.4185 23.283C24.253 22.4485 24.7219 21.3166 24.7219 20.1364V9.2588C24.7219 6.79897 22.7317 4.80886 20.2719 4.80886H9.39429ZM21.3226 6.663C21.7324 6.663 22.1254 6.82579 22.4152 7.11555C22.7049 7.40532 22.8677 7.79833 22.8677 8.20812C22.8677 8.61791 22.7049 9.01091 22.4152 9.30068C22.1254 9.59044 21.7324 9.75323 21.3226 9.75323C20.9128 9.75323 20.5198 9.59044 20.23 9.30068C19.9403 9.01091 19.7775 8.61791 19.7775 8.20812C19.7775 7.79833 19.9403 7.40532 20.23 7.11555C20.5198 6.82579 20.9128 6.663 21.3226 6.663ZM14.8331 8.51714C16.4723 8.51714 18.0443 9.16829 19.2034 10.3274C20.3624 11.4864 21.0136 13.0584 21.0136 14.6976C21.0136 16.3368 20.3624 17.9088 19.2034 19.0679C18.0443 20.2269 16.4723 20.8781 14.8331 20.8781C13.1939 20.8781 11.6219 20.2269 10.4629 19.0679C9.30379 17.9088 8.65264 16.3368 8.65264 14.6976C8.65264 13.0584 9.30379 11.4864 10.4629 10.3274C11.6219 9.16829 13.1939 8.51714 14.8331 8.51714ZM14.8331 10.9893C13.8496 10.9893 12.9064 11.38 12.211 12.0755C11.5155 12.7709 11.1248 13.7141 11.1248 14.6976C11.1248 15.6811 11.5155 16.6243 12.211 17.3198C12.9064 18.0152 13.8496 18.4059 14.8331 18.4059C15.8166 18.4059 16.7598 18.0152 17.4553 17.3198C18.1507 16.6243 18.5414 15.6811 18.5414 14.6976C18.5414 13.7141 18.1507 12.7709 17.4553 12.0755C16.7598 11.38 15.8166 10.9893 14.8331 10.9893Z"
                    fill="white"
                  />
                </svg>