<svg width="32" height="32" viewBox="0 0 32 32" fill="none" xmlns="http://www.w3.org/2000/svg">
<path fill-rule="evenodd" clip-rule="evenodd" d="M16.0001 6.66671C16.3267 6.66666 16.6419 6.54676 16.8859 6.32975C17.13 6.11274 17.2859 5.81371 17.3241 5.48937L17.3334 5.33337V4.00004C17.333 3.6602 17.2029 3.33333 16.9696 3.08622C16.7363 2.8391 16.4175 2.69039 16.0782 2.67048C15.739 2.65056 15.4049 2.76094 15.1443 2.97906C14.8837 3.19718 14.7162 3.50658 14.6761 3.84404L14.6667 4.00004V5.33337C14.6667 5.68699 14.8072 6.02613 15.0573 6.27618C15.3073 6.52623 15.6465 6.66671 16.0001 6.66671ZM9.40008 9.40004C9.65004 9.15 9.79046 8.81093 9.79046 8.45737C9.79046 8.10382 9.65004 7.76474 9.40008 7.51471L8.45741 6.57204C8.33442 6.44469 8.18729 6.34312 8.02462 6.27324C7.86195 6.20336 7.68699 6.16658 7.50995 6.16504C7.33291 6.1635 7.15734 6.19724 6.99348 6.26428C6.82961 6.33132 6.68075 6.43032 6.55555 6.55551C6.43036 6.6807 6.33136 6.82957 6.26432 6.99343C6.19728 7.1573 6.16354 7.33287 6.16508 7.50991C6.16662 7.68695 6.2034 7.86191 6.27328 8.02458C6.34316 8.18725 6.44473 8.33438 6.57208 8.45737L7.51475 9.40004C7.76479 9.65 8.10386 9.79042 8.45741 9.79042C8.81097 9.79042 9.15004 9.65 9.40008 9.40004ZM24.4854 9.40004L25.4281 8.45737C25.671 8.2059 25.8054 7.8691 25.8023 7.5195C25.7993 7.16991 25.6591 6.83549 25.4118 6.58828C25.1646 6.34107 24.8302 6.20085 24.4806 6.19781C24.131 6.19477 23.7942 6.32916 23.5427 6.57204L22.6001 7.51471C22.3572 7.76618 22.2228 8.10298 22.2259 8.45258C22.2289 8.80217 22.3691 9.13659 22.6163 9.3838C22.8635 9.63101 23.198 9.77123 23.5475 9.77427C23.8971 9.77731 24.2339 9.64292 24.4854 9.40004ZM16.8227 29.3334C17.4728 29.3335 18.1006 29.0962 18.588 28.666C19.0753 28.2358 19.3888 27.6424 19.4694 26.9974L19.9761 22.944C21.5063 22.0676 22.7041 20.7101 23.3831 19.0827C24.0622 17.4552 24.1845 15.649 23.7311 13.9449C23.2776 12.2407 22.2738 10.7342 20.8757 9.65943C19.4776 8.5847 17.7635 8.00204 16.0001 8.00204C14.2366 8.00204 12.5226 8.5847 11.1245 9.65943C9.7264 10.7342 8.72257 12.2407 8.2691 13.9449C7.81564 15.649 7.93795 17.4552 8.61702 19.0827C9.29608 20.7101 10.4939 22.0676 12.0241 22.944L12.5307 26.9974C12.6114 27.6424 12.9248 28.2358 13.4122 28.666C13.8996 29.0962 14.5273 29.3335 15.1774 29.3334H16.8227ZM5.33341 17.3334C5.68704 17.3334 6.02618 17.1929 6.27622 16.9428C6.52627 16.6928 6.66675 16.3537 6.66675 16C6.66675 15.6464 6.52627 15.3073 6.27622 15.0572C6.02618 14.8072 5.68704 14.6667 5.33341 14.6667H4.00008C3.64646 14.6667 3.30732 14.8072 3.05727 15.0572C2.80722 15.3073 2.66675 15.6464 2.66675 16C2.66675 16.3537 2.80722 16.6928 3.05727 16.9428C3.30732 17.1929 3.64646 17.3334 4.00008 17.3334H5.33341ZM28.0001 17.3334C28.3537 17.3334 28.6928 17.1929 28.9429 16.9428C29.1929 16.6928 29.3334 16.3537 29.3334 16C29.3334 15.6464 29.1929 15.3073 28.9429 15.0572C28.6928 14.8072 28.3537 14.6667 28.0001 14.6667H26.6667C26.3131 14.6667 25.974 14.8072 25.7239 15.0572C25.4739 15.3073 25.3334 15.6464 25.3334 16C25.3334 16.3537 25.4739 16.6928 25.7239 16.9428C25.974 17.1929 26.3131 17.3334 26.6667 17.3334H28.0001ZM25.4281 25.4267C25.678 25.1767 25.8185 24.8376 25.8185 24.484C25.8185 24.1305 25.678 23.7914 25.4281 23.5414L24.4854 22.5987C24.3624 22.4714 24.2153 22.3698 24.0526 22.2999C23.8899 22.23 23.715 22.1932 23.5379 22.1917C23.3609 22.1902 23.1853 22.2239 23.0215 22.2909C22.8576 22.358 22.7087 22.457 22.5836 22.5822C22.4584 22.7074 22.3594 22.8562 22.2923 23.0201C22.2253 23.184 22.1915 23.3595 22.1931 23.5366C22.1946 23.7136 22.2314 23.8886 22.3013 24.0512C22.3712 24.2139 22.4727 24.361 22.6001 24.484L23.5427 25.4267C23.7928 25.6767 24.1319 25.8171 24.4854 25.8171C24.839 25.8171 25.178 25.6767 25.4281 25.4267ZM8.45741 25.4267L9.40008 24.484C9.63696 24.2314 9.76626 23.8966 9.76064 23.5503C9.75502 23.2041 9.61491 22.8736 9.36996 22.6289C9.12501 22.3841 8.79443 22.2442 8.44819 22.2388C8.10194 22.2334 7.76718 22.363 7.51475 22.6L6.57208 23.5427C6.33521 23.7953 6.2059 24.1302 6.21152 24.4764C6.21715 24.8226 6.35726 25.1531 6.60221 25.3979C6.84716 25.6427 7.17773 25.7825 7.52398 25.7879C7.87022 25.7933 8.20498 25.6638 8.45741 25.4267ZM16.8227 26.6667H15.1774L14.8441 24H17.1561L16.8227 26.6667Z" fill="#F5F5F5"/>
</svg>
