<svg width="19" height="19" viewBox="0 0 19 19" fill="none" xmlns="http://www.w3.org/2000/svg">
<path fill-rule="evenodd" clip-rule="evenodd" d="M8.04574 4.17931C8.15306 4.28675 8.21333 4.4324 8.21333 4.58426C8.21333 4.73612 8.15306 4.88177 8.04574 4.98921L4.43938 8.59558H15.2814C15.4334 8.59558 15.5791 8.65595 15.6866 8.76342C15.7941 8.87089 15.8544 9.01664 15.8544 9.16862C15.8544 9.3206 15.7941 9.46636 15.6866 9.57383C15.5791 9.68129 15.4334 9.74167 15.2814 9.74167H4.43938L8.04574 13.348C8.10204 13.4005 8.1472 13.4638 8.17852 13.5341C8.20984 13.6043 8.22668 13.6802 8.22804 13.7572C8.2294 13.8341 8.21524 13.9105 8.18642 13.9819C8.1576 14.0533 8.1147 14.1181 8.06029 14.1725C8.00587 14.2269 7.94106 14.2698 7.8697 14.2986C7.79835 14.3274 7.72192 14.3416 7.64498 14.3402C7.56803 14.3389 7.49215 14.322 7.42186 14.2907C7.35157 14.2594 7.2883 14.2142 7.23584 14.1579L2.65148 9.57357C2.54416 9.46613 2.48389 9.32048 2.48389 9.16862C2.48389 9.01677 2.54416 8.87112 2.65148 8.76367L7.23584 4.17931C7.34329 4.072 7.48893 4.01172 7.64079 4.01172C7.79265 4.01172 7.9383 4.072 8.04574 4.17931Z" fill="url(#paint0_linear_509_184)"/>
<defs>
<linearGradient id="paint0_linear_509_184" x1="2.58215" y1="4.01172" x2="8.35872" y2="17.5068" gradientUnits="userSpaceOnUse">
<stop stop-color="#51B168"/>
<stop offset="1" stop-color="#156B56"/>
</linearGradient>
</defs>
</svg>
