<svg width="19" height="19" viewBox="0 0 19 19" fill="none" xmlns="http://www.w3.org/2000/svg">
<path d="M6.49463 10.6969C6.74793 10.6969 6.99086 10.5963 7.16997 10.4172C7.34908 10.238 7.4497 9.99512 7.4497 9.74182C7.4497 9.48852 7.34908 9.24559 7.16997 9.06648C6.99086 8.88737 6.74793 8.78674 6.49463 8.78674C6.24132 8.78674 5.9984 8.88737 5.81929 9.06648C5.64017 9.24559 5.53955 9.48852 5.53955 9.74182C5.53955 9.99512 5.64017 10.238 5.81929 10.4172C5.9984 10.5963 6.24132 10.6969 6.49463 10.6969ZM6.49463 13.3711C6.74793 13.3711 6.99086 13.2705 7.16997 13.0914C7.34908 12.9123 7.4497 12.6693 7.4497 12.416C7.4497 12.1627 7.34908 11.9198 7.16997 11.7407C6.99086 11.5616 6.74793 11.461 6.49463 11.461C6.24132 11.461 5.9984 11.5616 5.81929 11.7407C5.64017 11.9198 5.53955 12.1627 5.53955 12.416C5.53955 12.6693 5.64017 12.9123 5.81929 13.0914C5.9984 13.2705 6.24132 13.3711 6.49463 13.3711ZM10.1239 9.74182C10.1239 9.99512 10.0233 10.238 9.84418 10.4172C9.66507 10.5963 9.42214 10.6969 9.16884 10.6969C8.91554 10.6969 8.67261 10.5963 8.4935 10.4172C8.31439 10.238 8.21376 9.99512 8.21376 9.74182C8.21376 9.48852 8.31439 9.24559 8.4935 9.06648C8.67261 8.88737 8.91554 8.78674 9.16884 8.78674C9.42214 8.78674 9.66507 8.88737 9.84418 9.06648C10.0233 9.24559 10.1239 9.48852 10.1239 9.74182ZM9.16884 13.3711C9.42214 13.3711 9.66507 13.2705 9.84418 13.0914C10.0233 12.9123 10.1239 12.6693 10.1239 12.416C10.1239 12.1627 10.0233 11.9198 9.84418 11.7407C9.66507 11.5616 9.42214 11.461 9.16884 11.461C8.91554 11.461 8.67261 11.5616 8.4935 11.7407C8.31439 11.9198 8.21376 12.1627 8.21376 12.416C8.21376 12.6693 8.31439 12.9123 8.4935 13.0914C8.67261 13.2705 8.91554 13.3711 9.16884 13.3711ZM12.7981 9.74182C12.7981 9.99512 12.6975 10.238 12.5184 10.4172C12.3393 10.5963 12.0964 10.6969 11.8431 10.6969C11.5897 10.6969 11.3468 10.5963 11.1677 10.4172C10.9886 10.238 10.888 9.99512 10.888 9.74182C10.888 9.48852 10.9886 9.24559 11.1677 9.06648C11.3468 8.88737 11.5897 8.78674 11.8431 8.78674C12.0964 8.78674 12.3393 8.88737 12.5184 9.06648C12.6975 9.24559 12.7981 9.48852 12.7981 9.74182Z" fill="#4A4A4A"/>
<path fill-rule="evenodd" clip-rule="evenodd" d="M6.1123 2.48315C6.26428 2.48315 6.41003 2.54353 6.5175 2.651C6.62497 2.75846 6.68534 2.90422 6.68534 3.0562V3.62925H11.6517V3.0562C11.6517 2.90422 11.7121 2.75846 11.8196 2.651C11.927 2.54353 12.0728 2.48315 12.2248 2.48315C12.3768 2.48315 12.5225 2.54353 12.63 2.651C12.7375 2.75846 12.7978 2.90422 12.7978 3.0562V3.63536C12.914 3.63841 13.0222 3.64402 13.1226 3.65217C13.4129 3.67509 13.6849 3.72704 13.9424 3.85846C14.3378 4.05992 14.6593 4.38142 14.8608 4.77686C14.9922 5.03435 15.0442 5.30636 15.0671 5.5967C15.09 5.87558 15.09 6.21559 15.09 6.62436V12.4771C15.09 12.8858 15.09 13.2258 15.0671 13.5047C15.0442 13.7951 14.9922 14.0671 14.8608 14.3246C14.6595 14.7199 14.3383 15.0414 13.9432 15.243C13.6849 15.3744 13.4129 15.4263 13.1226 15.4493C12.8437 15.4722 12.5037 15.4722 12.0957 15.4722H6.24219C5.83342 15.4722 5.49341 15.4722 5.21453 15.4493C4.92418 15.4263 4.65218 15.3744 4.39469 15.243C3.99948 15.0419 3.67801 14.721 3.47629 14.3261C3.34487 14.0678 3.29291 13.7958 3.26999 13.5055C3.24707 13.2266 3.24707 12.8866 3.24707 12.4786V6.62436C3.24707 6.21559 3.24707 5.87558 3.26999 5.5967C3.29291 5.30636 3.34487 5.03435 3.47629 4.77686C3.67775 4.38142 3.99925 4.05992 4.39469 3.85846C4.65218 3.72704 4.92418 3.67509 5.21453 3.65217C5.31487 3.64402 5.42311 3.63841 5.53925 3.63536V3.0562C5.53925 2.98095 5.55407 2.90643 5.58287 2.8369C5.61167 2.76738 5.65388 2.70421 5.70709 2.651C5.76031 2.59778 5.82348 2.55557 5.893 2.52677C5.96253 2.49798 6.03704 2.48315 6.1123 2.48315ZM13.9439 7.83158H4.39316V12.4541C4.39316 12.8912 4.39316 13.1853 4.41226 13.4107C4.42984 13.6308 4.46193 13.7355 4.49707 13.8042C4.58876 13.9846 4.7347 14.1305 4.91501 14.2222C4.98378 14.2573 5.08846 14.2894 5.30774 14.307C5.5339 14.3253 5.8273 14.3261 6.26511 14.3261H12.072C12.509 14.3261 12.8032 14.3261 13.0286 14.307C13.2486 14.2894 13.3533 14.2573 13.4221 14.2222C13.6021 14.1306 13.7484 13.9842 13.84 13.8042C13.8752 13.7355 13.9072 13.6308 13.9248 13.4107C13.9432 13.1853 13.9439 12.8912 13.9439 12.4541V7.83158ZM8.02245 5.34838C7.87047 5.34838 7.72471 5.40876 7.61724 5.51622C7.50978 5.62369 7.4494 5.76945 7.4494 5.92143C7.4494 6.07341 7.50978 6.21916 7.61724 6.32663C7.72471 6.4341 7.87047 6.49447 8.02245 6.49447H10.3146C10.4666 6.49447 10.6124 6.4341 10.7198 6.32663C10.8273 6.21916 10.8877 6.07341 10.8877 5.92143C10.8877 5.76945 10.8273 5.62369 10.7198 5.51622C10.6124 5.40876 10.4666 5.34838 10.3146 5.34838H8.02245Z" fill="#4A4A4A"/>
</svg>
