<svg width="19" height="19" viewBox="0 0 19 19" fill="none" xmlns="http://www.w3.org/2000/svg">
<path d="M9.16893 1.52808C13.3888 1.52808 16.8095 4.94878 16.8095 9.16868C16.8095 13.3886 13.3888 16.8093 9.16893 16.8093C4.94902 16.8093 1.52832 13.3886 1.52832 9.16868C1.52832 4.94878 4.94902 1.52808 9.16893 1.52808ZM9.16893 4.58432C8.96628 4.58432 8.77194 4.66482 8.62865 4.80811C8.48536 4.9514 8.40486 5.14574 8.40486 5.34838V9.16868C8.40491 9.37131 8.48544 9.56562 8.62873 9.70887L10.9209 12.0011C11.065 12.1402 11.258 12.2172 11.4584 12.2155C11.6587 12.2138 11.8503 12.1334 11.992 11.9917C12.1337 11.8501 12.214 11.6584 12.2157 11.4581C12.2175 11.2578 12.1405 11.0648 12.0013 10.9207L9.93299 8.85236V5.34838C9.93299 5.14574 9.85249 4.9514 9.7092 4.80811C9.56591 4.66482 9.37157 4.58432 9.16893 4.58432Z" fill="#4A4A4A"/>
</svg>
