<svg width="48" height="48" viewBox="0 0 48 48" fill="none" xmlns="http://www.w3.org/2000/svg">
<path d="M14.9994 27L22.2494 19.75C22.4161 19.5833 22.5827 19.4667 22.7494 19.4C22.9161 19.3333 23.0994 19.3 23.2994 19.3C23.4994 19.3 23.6827 19.3333 23.8494 19.4C24.0161 19.4667 24.1827 19.5833 24.3494 19.75L31.5994 27C31.6994 27.1 31.7741 27.2087 31.8234 27.326C31.8727 27.4433 31.8981 27.568 31.8994 27.7C31.8994 27.9667 31.8074 28.2 31.6234 28.4C31.4394 28.6 31.1981 28.7 30.8994 28.7H15.6994C15.3994 28.7 15.1574 28.6 14.9734 28.4C14.7894 28.2 14.6981 27.9667 14.6994 27.7C14.6994 27.6333 14.7994 27.4 14.9994 27Z" fill="url(#paint0_linear_545_577)"/>
<defs>
<linearGradient id="paint0_linear_545_577" x1="31.8994" y1="19.3691" x2="18.7878" y2="32.6632" gradientUnits="userSpaceOnUse">
<stop stop-color="#51B168"/>
<stop offset="1" stop-color="#156B56"/>
</linearGradient>
</defs>
</svg>
