<svg width="19" height="19" viewBox="0 0 19 19" fill="none" xmlns="http://www.w3.org/2000/svg">
<path fill-rule="evenodd" clip-rule="evenodd" d="M8.04525 4.17943C8.15257 4.28688 8.21284 4.43252 8.21284 4.58438C8.21284 4.73624 8.15257 4.88189 8.04525 4.98933L4.43889 8.5957H15.2809C15.4329 8.5957 15.5786 8.65607 15.6861 8.76354C15.7936 8.87101 15.854 9.01676 15.854 9.16875C15.854 9.32073 15.7936 9.46648 15.6861 9.57395C15.5786 9.68142 15.4329 9.74179 15.2809 9.74179H4.43889L8.04525 13.3482C8.10156 13.4006 8.14671 13.4639 8.17803 13.5342C8.20935 13.6045 8.2262 13.6804 8.22755 13.7573C8.22891 13.8342 8.21476 13.9107 8.18594 13.982C8.15711 14.0534 8.11422 14.1182 8.0598 14.1726C8.00539 14.227 7.94057 14.2699 7.86921 14.2987C7.79786 14.3276 7.72143 14.3417 7.64449 14.3404C7.56754 14.339 7.49166 14.3222 7.42137 14.2908C7.35108 14.2595 7.28781 14.2144 7.23535 14.1581L2.65099 9.5737C2.54367 9.46625 2.4834 9.3206 2.4834 9.16875C2.4834 9.01689 2.54367 8.87124 2.65099 8.76379L7.23535 4.17943C7.3428 4.07212 7.48844 4.01184 7.6403 4.01184C7.79216 4.01184 7.93781 4.07212 8.04525 4.17943Z" fill="url(#paint0_linear_591_270)"/>
<defs>
<linearGradient id="paint0_linear_591_270" x1="2.58166" y1="4.01184" x2="8.35823" y2="17.5069" gradientUnits="userSpaceOnUse">
<stop stop-color="#51B168"/>
<stop offset="1" stop-color="#156B56"/>
</linearGradient>
</defs>
</svg>
