<svg width="24" height="24" viewBox="0 0 24 24" fill="none" xmlns="http://www.w3.org/2000/svg">
<path fill-rule="evenodd" clip-rule="evenodd" d="M11.49 4.11007C10.1081 3.28107 8.55316 2.78292 6.94677 2.65455C5.34039 2.52618 3.72607 2.77106 2.23003 3.37007C2.01396 3.45607 1.82874 3.60503 1.69838 3.79761C1.56803 3.9902 1.49858 4.21752 1.49903 4.45007V16.1101C1.49903 16.8901 2.28803 17.4241 3.01303 17.1341C4.23819 16.6442 5.56002 16.4442 6.87527 16.5497C8.19052 16.6551 9.46358 17.0632 10.595 17.7421L11.73 18.4221C11.817 18.4751 11.91 18.4971 11.999 18.4961C12.0941 18.4979 12.1878 18.4726 12.269 18.4231L13.403 17.7421C14.5345 17.0632 15.8075 16.6551 17.1228 16.5497C18.438 16.4442 19.7599 16.6442 20.985 17.1341C21.1525 17.2011 21.3339 17.226 21.5133 17.2067C21.6927 17.1873 21.8646 17.1244 22.0139 17.0232C22.1633 16.9221 22.2857 16.7859 22.3702 16.6265C22.4548 16.4671 22.499 16.2895 22.499 16.1091V4.45007C22.499 3.97407 22.209 3.54707 21.768 3.37007C20.272 2.77152 18.6578 2.52706 17.0516 2.65577C15.4454 2.78449 13.8907 3.28291 12.509 4.11207L11.999 4.41807L11.49 4.11007ZM12.75 6.50007C12.75 6.30116 12.671 6.11039 12.5304 5.96974C12.3897 5.82909 12.1989 5.75007 12 5.75007C11.8011 5.75007 11.6103 5.82909 11.4697 5.96974C11.329 6.11039 11.25 6.30116 11.25 6.50007V16.0001C11.25 16.199 11.329 16.3897 11.4697 16.5304C11.6103 16.6711 11.8011 16.7501 12 16.7501C12.1989 16.7501 12.3897 16.6711 12.5304 16.5304C12.671 16.3897 12.75 16.199 12.75 16.0001V6.50007Z" fill="white"/>
<path d="M2.72519 19.0421C3.71924 18.4623 4.8494 18.1567 6.00019 18.1567C7.15099 18.1567 8.28115 18.4623 9.27519 19.0421L10.3622 19.6761C10.8593 19.9662 11.4246 20.119 12.0002 20.119C12.5758 20.119 13.1411 19.9662 13.6382 19.6761L14.7252 19.0421C15.7192 18.4623 16.8494 18.1567 18.0002 18.1567C19.151 18.1567 20.2811 18.4623 21.2752 19.0421L21.3782 19.1021C21.4633 19.1517 21.5378 19.2176 21.5974 19.2961C21.657 19.3745 21.7006 19.4639 21.7257 19.5592C21.7508 19.6544 21.7568 19.7537 21.7435 19.8513C21.7302 19.9489 21.6978 20.043 21.6482 20.1281C21.5986 20.2132 21.5326 20.2877 21.4542 20.3473C21.3758 20.4069 21.2864 20.4505 21.1911 20.4756C21.0958 20.5006 20.9966 20.5067 20.8989 20.4934C20.8013 20.4801 20.7073 20.4477 20.6222 20.3981L20.5192 20.3381C19.7546 19.8922 18.8853 19.6572 18.0002 19.6572C17.1151 19.6572 16.2458 19.8922 15.4812 20.3381L14.3932 20.9721C13.6668 21.3957 12.8411 21.6189 12.0002 21.6189C11.1593 21.6189 10.3335 21.3957 9.60719 20.9721L8.51919 20.3381C7.7546 19.8922 6.88533 19.6572 6.00019 19.6572C5.11506 19.6572 4.24579 19.8922 3.48119 20.3381L3.37819 20.3981C3.20633 20.4983 3.00169 20.5262 2.80928 20.4756C2.61686 20.4249 2.45245 20.2999 2.35219 20.1281C2.25194 19.9562 2.22407 19.7516 2.2747 19.5592C2.32534 19.3668 2.45033 19.2023 2.62219 19.1021L2.72519 19.0421Z" fill="white"/>
</svg>
