<svg width="32" height="32" viewBox="0 0 32 32" fill="none" xmlns="http://www.w3.org/2000/svg">
<rect width="32" height="32" rx="6" fill="url(#paint0_linear_651_134)"/>
<path d="M15.9992 12.736L20.8456 10.8L8.84562 6L4.70802 7.6544C4.49926 7.73752 4.30322 7.84955 4.12562 7.9872L15.9992 12.736ZM3.25522 9.3648C3.2179 9.53453 3.19912 9.70781 3.19922 9.8816V22.1152C3.19914 22.595 3.34284 23.0637 3.61179 23.461C3.88073 23.8583 4.26257 24.1658 4.70802 24.344L13.9192 28.0288C14.3363 28.1952 14.763 28.3093 15.1992 28.3712V14.1408L3.25522 9.3648ZM16.7992 28.3728C17.2379 28.3097 17.6676 28.1948 18.0792 28.0304L27.2904 24.3456C27.7361 24.1673 28.1181 23.8595 28.3871 23.4619C28.6561 23.0643 28.7996 22.5952 28.7992 22.1152V9.8816C28.7992 9.70453 28.7806 9.53173 28.7432 9.3632L16.7992 14.1408V28.3728ZM27.8728 7.9888L22.9992 9.9392L10.9992 5.1392L13.9192 3.968C15.2544 3.43384 16.744 3.43384 18.0792 3.968L27.2904 7.6528C27.4992 7.73592 27.6952 7.84795 27.8728 7.9856" fill="#F5F5F5"/>
<defs>
<linearGradient id="paint0_linear_651_134" x1="0.235169" y1="1.94416e-07" x2="21.2083" y2="37.8496" gradientUnits="userSpaceOnUse">
<stop stop-color="#51B168"/>
<stop offset="1" stop-color="#156B56"/>
</linearGradient>
</defs>
</svg>
