<svg width="32" height="32" viewBox="0 0 32 32" fill="none" xmlns="http://www.w3.org/2000/svg">
<path d="M15.9998 29.3334C14.1554 29.3334 12.4221 28.9832 10.7998 28.2827C9.17762 27.5823 7.76651 26.6325 6.56651 25.4334C5.36651 24.2343 4.41673 22.8232 3.71717 21.2001C3.01762 19.577 2.66739 17.8436 2.66651 16.0001C2.66562 14.1565 3.01584 12.4232 3.71717 10.8001C4.41851 9.17697 5.36828 7.76586 6.56651 6.56675C7.76473 5.36764 9.17584 4.41786 10.7998 3.71741C12.4238 3.01697 14.1572 2.66675 15.9998 2.66675C17.8425 2.66675 19.5758 3.01697 21.1998 3.71741C22.8238 4.41786 24.235 5.36764 25.4332 6.56675C26.6314 7.76586 27.5816 9.17697 28.2838 10.8001C28.9861 12.4232 29.3358 14.1565 29.3332 16.0001C29.3305 17.8436 28.9803 19.577 28.2825 21.2001C27.5847 22.8232 26.635 24.2343 25.4332 25.4334C24.2314 26.6325 22.8203 27.5827 21.1998 28.2841C19.5794 28.9854 17.8461 29.3352 15.9998 29.3334ZM15.9998 26.6667C18.9776 26.6667 21.4998 25.6334 23.5665 23.5667C25.6332 21.5001 26.6665 18.9779 26.6665 16.0001C26.6665 15.8445 26.6612 15.6832 26.6505 15.5161C26.6398 15.349 26.6341 15.2103 26.6332 15.1001C26.5221 15.7445 26.2221 16.2779 25.7332 16.7001C25.2443 17.1223 24.6665 17.3334 23.9998 17.3334H21.3332C20.5998 17.3334 19.9723 17.0725 19.4505 16.5507C18.9287 16.029 18.6674 15.401 18.6665 14.6667V13.3334H13.3332V10.6667C13.3332 9.93341 13.5945 9.30586 14.1172 8.78408C14.6398 8.2623 15.2674 8.00097 15.9998 8.00008H17.3332C17.3332 7.48897 17.4723 7.03919 17.7505 6.65075C18.0287 6.2623 18.3674 5.94542 18.7665 5.70008C18.3221 5.58897 17.8723 5.50008 17.4172 5.43341C16.9621 5.36675 16.4896 5.33341 15.9998 5.33341C13.0221 5.33341 10.4998 6.36675 8.43317 8.43341C6.36651 10.5001 5.33317 13.0223 5.33317 16.0001H11.9998C13.4665 16.0001 14.7221 16.5223 15.7665 17.5667C16.8109 18.6112 17.3332 19.8667 17.3332 21.3334V22.6667H13.3332V26.3334C13.7776 26.4445 14.2167 26.5281 14.6505 26.5841C15.0843 26.6401 15.5341 26.6676 15.9998 26.6667Z" fill="white"/>
</svg>
