<svg width="24" height="24" viewBox="0 0 24 24" fill="none" xmlns="http://www.w3.org/2000/svg">
<path d="M21.2426 12.3311L12.2426 2.33115C11.8636 1.90915 11.1356 1.90915 10.7566 2.33115L1.75663 12.3311C1.62731 12.4749 1.54242 12.653 1.51225 12.844C1.48208 13.0349 1.50791 13.2306 1.58663 13.4071C1.74663 13.7681 2.10463 14.0001 2.49963 14.0001H4.49963V21.0001C4.49963 21.2654 4.60498 21.5197 4.79252 21.7073C4.98006 21.8948 5.23441 22.0001 5.49963 22.0001H8.49963C8.76484 22.0001 9.0192 21.8948 9.20673 21.7073C9.39427 21.5197 9.49963 21.2654 9.49963 21.0001V17.0001H13.4996V21.0001C13.4996 21.2654 13.605 21.5197 13.7925 21.7073C13.9801 21.8948 14.2344 22.0001 14.4996 22.0001H17.4996C17.7648 22.0001 18.0192 21.8948 18.2067 21.7073C18.3943 21.5197 18.4996 21.2654 18.4996 21.0001V14.0001H20.4996C20.6933 14.001 20.883 13.9454 21.0457 13.8403C21.2083 13.7352 21.3369 13.585 21.4156 13.408C21.4944 13.2311 21.52 13.0351 21.4892 12.8439C21.4585 12.6527 21.3728 12.4745 21.2426 12.3311Z" fill="#F5F5F5"/>
</svg>
