<svg width="30" height="30" viewBox="0 0 30 30" fill="none" xmlns="http://www.w3.org/2000/svg">
<path d="M23.9135 19.6152C23.8271 19.5126 23.7423 19.4099 23.6591 19.3108C22.5142 17.9446 21.8215 17.1201 21.8215 13.2528C21.8215 11.2505 21.336 9.60766 20.379 8.37552C19.6734 7.46527 18.7195 6.77476 17.4622 6.26445C17.446 6.25557 17.4316 6.24392 17.4195 6.23005C16.9673 4.73608 15.7298 3.73547 14.3341 3.73547C12.9384 3.73547 11.7014 4.73608 11.2492 6.22851C11.2372 6.24189 11.2229 6.25317 11.2071 6.26188C8.27308 7.45346 6.8472 9.7396 6.8472 13.2512C6.8472 17.1201 6.1556 17.9446 5.00969 19.3092C4.92642 19.4083 4.8416 19.509 4.75521 19.6137C4.53207 19.8792 4.39069 20.2022 4.3478 20.5445C4.30492 20.8867 4.36233 21.234 4.51323 21.5451C4.83431 22.2125 5.51863 22.6268 6.29974 22.6268H22.3742C23.1517 22.6268 23.8313 22.213 24.1534 21.5487C24.305 21.2375 24.3629 20.89 24.3204 20.5473C24.2779 20.2046 24.1367 19.8812 23.9135 19.6152ZM14.3341 26.7355C15.0861 26.7349 15.8239 26.5335 16.4693 26.1527C17.1146 25.7719 17.6435 25.2259 17.9998 24.5725C18.0166 24.5412 18.0248 24.5062 18.0238 24.4708C18.0228 24.4354 18.0126 24.4008 17.994 24.3705C17.9755 24.3402 17.9493 24.3151 17.918 24.2977C17.8868 24.2803 17.8515 24.2712 17.8156 24.2712H10.8537C10.8178 24.2711 10.7824 24.2801 10.7511 24.2975C10.7197 24.3149 10.6935 24.3399 10.6749 24.3703C10.6563 24.4006 10.6459 24.4352 10.6449 24.4706C10.6439 24.5061 10.6522 24.5412 10.669 24.5725C11.0252 25.2258 11.554 25.7718 12.1993 26.1526C12.8445 26.5334 13.5822 26.7348 14.3341 26.7355Z" fill="#1A1A1A"/>
</svg>
