<svg width="32" height="32" viewBox="0 0 32 32" fill="none" xmlns="http://www.w3.org/2000/svg">
<g clip-path="url(#clip0_85_306)">
<path d="M22.1246 23.1111H29.1113C28.5247 15.3688 25.1913 10.5599 20.9158 7.7155L22.8624 3.46661C22.9213 3.33179 22.9457 3.18447 22.9336 3.03786C22.9215 2.89125 22.8732 2.74994 22.793 2.6266C22.7129 2.50326 22.6033 2.40175 22.4743 2.33116C22.3452 2.26058 22.2006 2.22313 22.0535 2.22217H9.86687C9.71977 2.22313 9.5752 2.26058 9.44614 2.33116C9.31707 2.40175 9.20754 2.50326 9.12737 2.6266C9.0472 2.74994 8.99889 2.89125 8.98678 3.03786C8.97467 3.18447 8.99914 3.33179 9.05798 3.46661L10.1247 5.77772H19.1202L18.3202 7.5555H16.6758C17.1774 8.90611 17.5466 10.3023 17.778 11.7244C17.9264 12.6067 18.0214 13.4973 18.0624 14.3911L16.658 15.3777C16.662 14.228 16.5668 13.08 16.3735 11.9466C16.1282 10.4381 15.7045 8.96403 15.1113 7.5555H14.2224C13.4014 8.59152 12.6643 9.69129 12.018 10.8444C11.4966 11.8333 11.0538 12.8616 10.6935 13.9199L9.47576 13.1111C9.832 12.0884 10.2689 11.0956 10.7824 10.1422C11.3023 9.24861 11.8721 8.38503 12.4891 7.5555H10.9335L11.0047 7.70661C6.29354 10.8444 2.71132 16.3555 2.71132 25.5555C2.69931 25.7489 2.72573 25.9427 2.78907 26.1259C2.85241 26.309 2.95141 26.4777 3.08034 26.6224C3.20928 26.767 3.3656 26.8847 3.54026 26.9685C3.71493 27.0524 3.90449 27.1009 4.09798 27.1111H11.2091C10.9038 26.7933 10.6929 26.3967 10.6002 25.9659C10.5075 25.535 10.5366 25.0869 10.6843 24.6716C10.8319 24.2564 11.0923 23.8904 11.4362 23.6148C11.78 23.3392 12.1939 23.1648 12.6313 23.1111C12.4184 22.75 12.305 22.3391 12.3024 21.9199C12.3024 21.2834 12.5553 20.673 13.0054 20.2229C13.4555 19.7728 14.0659 19.5199 14.7024 19.5199H20.0358C20.6723 19.5199 21.2827 19.7728 21.7328 20.2229C22.1829 20.673 22.4358 21.2834 22.4358 21.9199C22.4403 22.3376 22.3329 22.7489 22.1246 23.1111Z" fill="white"/>
<path d="M19.2 25.3332C19.2 25.0975 19.1063 24.8714 18.9396 24.7047C18.7729 24.538 18.5468 24.4443 18.3111 24.4443H12.9778C12.742 24.4443 12.5159 24.538 12.3492 24.7047C12.1825 24.8714 12.0889 25.0975 12.0889 25.3332C12.0889 25.569 12.1825 25.7951 12.3492 25.9618C12.5159 26.1285 12.742 26.2221 12.9778 26.2221H18.3111C18.5468 26.2221 18.7729 26.1285 18.9396 25.9618C19.1063 25.7951 19.2 25.569 19.2 25.3332Z" fill="white"/>
<path d="M20.0357 20.8889H14.7024C14.4666 20.8889 14.2405 20.9826 14.0738 21.1493C13.9071 21.316 13.8135 21.5421 13.8135 21.7778C13.8135 22.0136 13.9071 22.2396 14.0738 22.4063C14.2405 22.573 14.4666 22.6667 14.7024 22.6667H20.0357C20.2714 22.6667 20.4975 22.573 20.6642 22.4063C20.8309 22.2396 20.9246 22.0136 20.9246 21.7778C20.9246 21.5421 20.8309 21.316 20.6642 21.1493C20.4975 20.9826 20.2714 20.8889 20.0357 20.8889Z" fill="white"/>
<path d="M19.5557 28H14.2224C13.9866 28 13.7605 28.0936 13.5938 28.2603C13.4271 28.427 13.3335 28.6531 13.3335 28.8889C13.3335 29.1246 13.4271 29.3507 13.5938 29.5174C13.7605 29.6841 13.9866 29.7778 14.2224 29.7778H19.5557C19.7915 29.7778 20.0176 29.6841 20.1843 29.5174C20.351 29.3507 20.4446 29.1246 20.4446 28.8889C20.4446 28.6531 20.351 28.427 20.1843 28.2603C20.0176 28.0936 19.7915 28 19.5557 28Z" fill="white"/>
<path d="M29.0667 28H22.8445C22.6087 28 22.3826 28.0936 22.2159 28.2603C22.0492 28.427 21.9556 28.6531 21.9556 28.8889C21.9556 29.1246 22.0492 29.3507 22.2159 29.5174C22.3826 29.6841 22.6087 29.7778 22.8445 29.7778H29.0667C29.3024 29.7778 29.5285 29.6841 29.6952 29.5174C29.8619 29.3507 29.9556 29.1246 29.9556 28.8889C29.9556 28.6531 29.8619 28.427 29.6952 28.2603C29.5285 28.0936 29.3024 28 29.0667 28Z" fill="white"/>
<path d="M29.9553 24.4443H23.7331C23.4974 24.4443 23.2713 24.538 23.1046 24.7047C22.9379 24.8714 22.8442 25.0975 22.8442 25.3332C22.8442 25.569 22.9379 25.7951 23.1046 25.9618C23.2713 26.1285 23.4974 26.2221 23.7331 26.2221H29.9553C30.1911 26.2221 30.4172 26.1285 30.5839 25.9618C30.7506 25.7951 30.8442 25.569 30.8442 25.3332C30.8442 25.0975 30.7506 24.8714 30.5839 24.7047C30.4172 24.538 30.1911 24.4443 29.9553 24.4443Z" fill="white"/>
</g>
<defs>
<clipPath id="clip0_85_306">
<rect width="32" height="32" fill="white"/>
</clipPath>
</defs>
</svg>
