<svg width="24" height="24" viewBox="0 0 24 24" fill="none" xmlns="http://www.w3.org/2000/svg">
<path d="M22.5 12.2929C22.5 15.6379 21.007 18.6349 18.65 20.6529C16.6593 22.36 14.1224 23.2967 11.5 23.2929C8.77 23.2929 6.273 22.2989 4.35 20.6529C3.14155 19.6211 2.17148 18.3392 1.50677 16.8958C0.842062 15.4524 0.498566 13.882 0.500004 12.2929C0.500004 6.21794 5.425 1.29294 11.5 1.29294C17.575 1.29294 22.5 6.21794 22.5 12.2929ZM15.5 8.79294C15.5 7.73207 15.0786 6.71466 14.3284 5.96451C13.5783 5.21437 12.5609 4.79294 11.5 4.79294C10.4391 4.79294 9.42172 5.21437 8.67158 5.96451C7.92143 6.71466 7.5 7.73207 7.5 8.79294C7.5 9.8538 7.92143 10.8712 8.67158 11.6214C9.42172 12.3715 10.4391 12.7929 11.5 12.7929C12.5609 12.7929 13.5783 12.3715 14.3284 11.6214C15.0786 10.8712 15.5 9.8538 15.5 8.79294ZM18 18.5179V18.2929C18 17.2321 17.5786 16.2147 16.8284 15.4645C16.0783 14.7144 15.0609 14.2929 14 14.2929H9C7.93914 14.2929 6.92172 14.7144 6.17158 15.4645C5.42143 16.2147 5 17.2321 5 18.2929V18.5179C5.20667 18.7333 5.42334 18.9383 5.65 19.1329C7.27846 20.5302 9.35427 21.2966 11.5 21.2929C12.715 21.2953 13.9178 21.0505 15.0352 20.5734C16.1526 20.0964 17.1613 19.397 18 18.5179Z" fill="#1A1A1A"/>
</svg>
