<svg width="32" height="32" viewBox="0 0 32 32" fill="none" xmlns="http://www.w3.org/2000/svg">
<path d="M29.0935 20.5601L25.7602 26.3334C25.1069 27.4801 23.8935 28.0801 22.6669 28.0001H20.0002V30.6667L16.6669 24.6667L20.0002 18.6667V21.3334H23.7602L20.8002 16.2001L26.5735 12.8667L28.9735 17.0267C29.6669 18.0534 29.7602 19.4267 29.0935 20.5601ZM12.2802 4.08008H18.9469C20.2535 4.08008 21.3869 4.84008 21.9335 5.93341L23.2669 8.25341L25.5735 6.92008L22.0535 12.8001L15.1869 12.9201L17.4935 11.5867L15.6135 8.32008L12.6669 13.4534L6.88021 10.1201L9.28021 5.96008C9.82688 4.85341 10.9602 4.08008 12.2802 4.08008ZM6.73354 26.3467L3.40021 20.5734C2.74687 19.4401 2.84021 18.0801 3.52021 17.0534L4.85354 14.7467L2.54688 13.4134L9.40021 13.5201L12.9335 19.4134L10.6269 18.0801L8.74688 21.3334H14.6669V28.0001H9.86688C9.24222 28.0453 8.6174 27.9143 8.06349 27.622C7.50958 27.3297 7.0488 26.8879 6.73354 26.3467Z" fill="white"/>
</svg>
