<svg width="32" height="32" viewBox="0 0 32 32" fill="none" xmlns="http://www.w3.org/2000/svg">
<rect width="32" height="32" rx="6" fill="url(#paint0_linear_651_141)"/>
<path d="M24.6882 7.72532C25.7753 8.86746 26.6266 10.2126 27.1935 11.684V11.6947C27.7951 13.2515 28.0653 14.9168 27.9869 16.584C27.9401 17.6383 27.7513 18.6815 27.4255 19.6853C26.5987 22.252 24.9305 24.4649 22.6906 25.9664C20.4507 27.4679 17.7699 28.1703 15.0815 27.96C13.2984 27.822 11.5687 27.2872 10.0189 26.3947C9.10066 25.8757 8.25661 25.2352 7.50955 24.4907C6.21309 23.1926 5.23151 21.6146 4.64027 19.8779C4.04902 18.1412 3.86384 16.2921 4.09896 14.4726C4.33409 12.6531 4.98326 10.9118 5.99657 9.38247C7.00989 7.85312 8.36037 6.57648 9.94421 5.65065C12.2758 4.28355 15.001 3.74456 17.6774 4.12117C20.3538 4.49778 22.8245 5.76788 24.6882 7.72532ZM11.7549 9.25332H7.74955V20.504H9.24955V16.004H11.7549L14.4109 20.504H16.4429L13.4989 15.612C15.0295 15.476 15.6202 13.8547 15.6202 12.4333C15.6202 10.7933 14.9135 9.68799 13.3669 9.40665C12.8357 9.30375 12.2959 9.2524 11.7549 9.25332ZM13.9269 12.6133C13.9269 14.168 12.4682 14.504 11.4069 14.504H9.24955V10.7533H11.5869C12.5575 10.7587 13.9282 11.2693 13.9282 12.6133M18.2509 12.2533H16.7509V23.504H18.2509V18.9227C18.8815 19.7067 20.1562 20.108 21.1442 20.096C23.3002 20.1147 25.0229 18.264 25.0015 16.1347C25.0282 13.972 23.3882 12.1413 21.1442 12.1787C20.1042 12.1653 18.8002 12.5613 18.2509 13.4947V12.2533ZM20.9975 13.7533C22.1082 13.7533 23.5015 14.4373 23.5015 16.1347C23.5015 17.536 22.7189 18.6013 21.1442 18.624C19.5709 18.6467 18.8855 17.7187 18.6162 16.9907C18.0535 15.4733 19.2362 13.7533 20.9962 13.7533" fill="#F5F5F5"/>
<defs>
<linearGradient id="paint0_linear_651_141" x1="0.235169" y1="1.94416e-07" x2="21.2083" y2="37.8496" gradientUnits="userSpaceOnUse">
<stop stop-color="#51B168"/>
<stop offset="1" stop-color="#156B56"/>
</linearGradient>
</defs>
</svg>
