<svg width="24" height="24" viewBox="0 0 24 24" fill="none" xmlns="http://www.w3.org/2000/svg">
<path d="M3.80308 5.6C3.75393 5.14626 3.8009 4.68725 3.94093 4.25286C4.08096 3.81847 4.31091 3.41845 4.6158 3.07884C4.9207 2.73922 5.29371 2.46763 5.71054 2.28175C6.12737 2.09588 6.57868 1.99987 7.03508 2H16.9651C17.4214 2.00001 17.8726 2.09612 18.2893 2.28206C18.706 2.468 19.0789 2.73961 19.3837 3.07921C19.6885 3.41881 19.9183 3.81878 20.0583 4.2531C20.1983 4.68741 20.2452 5.14634 20.1961 5.6L18.6401 19.991C18.5806 20.5428 18.3193 21.0532 17.9064 21.424C17.4935 21.7948 16.9581 22 16.4031 22H7.59608C7.04124 22 6.50595 21.795 6.09305 21.4244C5.68015 21.0538 5.41876 20.5436 5.35908 19.992L3.80308 5.6ZM5.30308 4.997H18.6971C18.6363 4.58106 18.4278 4.20089 18.1098 3.92601C17.7918 3.65113 17.3854 3.49991 16.9651 3.5H7.03508C6.14508 3.5 5.42408 4.16 5.30308 4.997ZM11.7921 10.409C11.8149 10.375 11.8458 10.3471 11.882 10.3278C11.9182 10.3085 11.9586 10.2984 11.9996 10.2984C12.0406 10.2984 12.081 10.3085 12.1171 10.3278C12.1533 10.3471 12.1842 10.375 12.2071 10.409L12.8771 11.409C12.9304 11.494 13.0003 11.5674 13.0825 11.6249C13.1647 11.6824 13.2577 11.7228 13.3558 11.7437C13.4539 11.7647 13.5553 11.7657 13.6538 11.7468C13.7524 11.7278 13.8461 11.6893 13.9295 11.6335C14.0129 11.5777 14.0842 11.5057 14.1393 11.4218C14.1943 11.338 14.232 11.2439 14.2501 11.1452C14.2681 11.0465 14.2662 10.9452 14.2444 10.8472C14.2226 10.7493 14.1813 10.6567 14.1231 10.575L13.4541 9.575C13.2942 9.33574 13.0778 9.13961 12.824 9.00396C12.5702 8.86832 12.2868 8.79736 11.9991 8.79736C11.7113 8.79736 11.428 8.86832 11.1742 9.00396C10.9204 9.13961 10.704 9.33574 10.5441 9.575L9.87608 10.575C9.76549 10.7404 9.72511 10.9429 9.76384 11.138C9.80256 11.3331 9.91722 11.5049 10.0826 11.6155C10.2479 11.7261 10.4505 11.7665 10.6456 11.7277C10.8407 11.689 11.0125 11.5744 11.1231 11.409L11.7921 10.409ZM9.89208 13.628C9.94393 13.5435 9.97853 13.4496 9.99386 13.3517C10.0092 13.2538 10.005 13.1538 9.98144 13.0575C9.95789 12.9612 9.9155 12.8706 9.85671 12.7908C9.79792 12.711 9.7239 12.6436 9.63892 12.5926C9.55394 12.5416 9.45969 12.5079 9.36162 12.4936C9.26355 12.4792 9.16361 12.4844 9.06757 12.5089C8.97153 12.5334 8.88129 12.5767 8.80208 12.6363C8.72287 12.6958 8.65625 12.7705 8.60608 12.856L8.24208 13.463C7.44208 14.796 8.40208 16.493 9.95708 16.493H10.7491C10.948 16.493 11.1388 16.414 11.2794 16.2733C11.4201 16.1327 11.4991 15.9419 11.4991 15.743C11.4991 15.5441 11.4201 15.3533 11.2794 15.2127C11.1388 15.072 10.948 14.993 10.7491 14.993H9.95708C9.86846 14.9931 9.78141 14.9697 9.70482 14.9251C9.62824 14.8805 9.56488 14.8164 9.52123 14.7393C9.47758 14.6622 9.45522 14.5748 9.45642 14.4862C9.45762 14.3976 9.48236 14.3109 9.52808 14.235L9.89208 13.628ZM14.3661 12.598C14.2814 12.6486 14.2076 12.7154 14.1488 12.7946C14.09 12.8738 14.0474 12.9638 14.0234 13.0595C13.9995 13.1552 13.9946 13.2546 14.0091 13.3522C14.0237 13.4497 14.0573 13.5435 14.1081 13.628L14.4721 14.235C14.5176 14.3109 14.5421 14.3975 14.5431 14.4859C14.5442 14.5744 14.5218 14.6616 14.4782 14.7385C14.4346 14.8155 14.3713 14.8795 14.2949 14.924C14.2184 14.9686 14.1315 14.992 14.0431 14.992H13.2491C13.0502 14.992 12.8594 15.071 12.7188 15.2117C12.5781 15.3523 12.4991 15.5431 12.4991 15.742C12.4991 15.9409 12.5781 16.1317 12.7188 16.2723C12.8594 16.413 13.0502 16.492 13.2491 16.492H14.0431C15.5971 16.492 16.5581 14.797 15.7591 13.464L15.3951 12.857C15.3445 12.7725 15.2777 12.6988 15.1986 12.6401C15.1195 12.5813 15.0296 12.5388 14.934 12.5148C14.8385 12.4909 14.7391 12.486 14.6417 12.5004C14.5442 12.5149 14.4506 12.5484 14.3661 12.599" fill="white"/>
</svg>
