<svg width="24" height="24" viewBox="0 0 24 24" fill="none" xmlns="http://www.w3.org/2000/svg">
<path d="M3.30308 5.6C3.25393 5.14626 3.3009 4.68725 3.44093 4.25286C3.58096 3.81847 3.81091 3.41845 4.1158 3.07884C4.4207 2.73922 4.79371 2.46763 5.21054 2.28175C5.62737 2.09588 6.07868 1.99987 6.53508 2H16.4651C16.9214 2.00001 17.3726 2.09612 17.7893 2.28206C18.206 2.468 18.5789 2.73961 18.8837 3.07921C19.1885 3.41881 19.4183 3.81878 19.5583 4.2531C19.6983 4.68741 19.7452 5.14634 19.6961 5.6L18.1401 19.991C18.0806 20.5428 17.8193 21.0532 17.4064 21.424C16.9935 21.7948 16.4581 22 15.9031 22H7.09608C6.54124 22 6.00595 21.795 5.59305 21.4244C5.18015 21.0538 4.91876 20.5436 4.85908 19.992L3.30308 5.6ZM4.80308 4.997H18.1971C18.1363 4.58106 17.9278 4.20089 17.6098 3.92601C17.2918 3.65113 16.8854 3.49991 16.4651 3.5H6.53508C5.64508 3.5 4.92408 4.16 4.80308 4.997ZM11.2921 10.409C11.3149 10.375 11.3458 10.3471 11.382 10.3278C11.4182 10.3085 11.4586 10.2984 11.4996 10.2984C11.5406 10.2984 11.581 10.3085 11.6171 10.3278C11.6533 10.3471 11.6842 10.375 11.7071 10.409L12.3771 11.409C12.4304 11.494 12.5003 11.5674 12.5825 11.6249C12.6647 11.6824 12.7577 11.7228 12.8558 11.7437C12.9539 11.7647 13.0553 11.7657 13.1538 11.7468C13.2524 11.7278 13.3461 11.6893 13.4295 11.6335C13.5129 11.5777 13.5842 11.5057 13.6393 11.4218C13.6943 11.338 13.732 11.2439 13.7501 11.1452C13.7681 11.0465 13.7662 10.9452 13.7444 10.8472C13.7226 10.7493 13.6813 10.6567 13.6231 10.575L12.9541 9.575C12.7942 9.33574 12.5778 9.13961 12.324 9.00396C12.0702 8.86832 11.7868 8.79736 11.4991 8.79736C11.2113 8.79736 10.928 8.86832 10.6742 9.00396C10.4204 9.13961 10.204 9.33574 10.0441 9.575L9.37608 10.575C9.26549 10.7404 9.22511 10.9429 9.26384 11.138C9.30256 11.3331 9.41722 11.5049 9.58258 11.6155C9.74794 11.7261 9.95047 11.7665 10.1456 11.7277C10.3407 11.689 10.5125 11.5744 10.6231 11.409L11.2921 10.409ZM9.39208 13.628C9.44393 13.5435 9.47853 13.4496 9.49386 13.3517C9.5092 13.2538 9.50498 13.1538 9.48144 13.0575C9.45789 12.9612 9.4155 12.8706 9.35671 12.7908C9.29792 12.711 9.2239 12.6436 9.13892 12.5926C9.05394 12.5416 8.95969 12.5079 8.86162 12.4936C8.76355 12.4792 8.66361 12.4844 8.56757 12.5089C8.47153 12.5334 8.38129 12.5767 8.30208 12.6363C8.22287 12.6958 8.15625 12.7705 8.10608 12.856L7.74208 13.463C6.94208 14.796 7.90208 16.493 9.45708 16.493H10.2491C10.448 16.493 10.6388 16.414 10.7794 16.2733C10.9201 16.1327 10.9991 15.9419 10.9991 15.743C10.9991 15.5441 10.9201 15.3533 10.7794 15.2127C10.6388 15.072 10.448 14.993 10.2491 14.993H9.45708C9.36846 14.9931 9.28141 14.9697 9.20482 14.9251C9.12824 14.8805 9.06488 14.8164 9.02123 14.7393C8.97758 14.6622 8.95522 14.5748 8.95642 14.4862C8.95762 14.3976 8.98236 14.3109 9.02808 14.235L9.39208 13.628ZM13.8661 12.598C13.7814 12.6486 13.7076 12.7154 13.6488 12.7946C13.59 12.8738 13.5474 12.9638 13.5234 13.0595C13.4995 13.1552 13.4946 13.2546 13.5091 13.3522C13.5237 13.4497 13.5573 13.5435 13.6081 13.628L13.9721 14.235C14.0176 14.3109 14.0421 14.3975 14.0431 14.4859C14.0442 14.5744 14.0218 14.6616 13.9782 14.7385C13.9346 14.8155 13.8713 14.8795 13.7949 14.924C13.7184 14.9686 13.6315 14.992 13.5431 14.992H12.7491C12.5502 14.992 12.3594 15.071 12.2188 15.2117C12.0781 15.3523 11.9991 15.5431 11.9991 15.742C11.9991 15.9409 12.0781 16.1317 12.2188 16.2723C12.3594 16.413 12.5502 16.492 12.7491 16.492H13.5431C15.0971 16.492 16.0581 14.797 15.2591 13.464L14.8951 12.857C14.8445 12.7725 14.7777 12.6988 14.6986 12.6401C14.6195 12.5813 14.5296 12.5388 14.434 12.5148C14.3385 12.4909 14.2391 12.486 14.1417 12.5004C14.0442 12.5149 13.9506 12.5484 13.8661 12.599" fill="#1A1A1A"/>
</svg>
