<svg width="24" height="24" viewBox="0 0 24 24" fill="none" xmlns="http://www.w3.org/2000/svg">
<path d="M3.5 5.81945H18.5C18.6752 5.81941 18.8503 5.83052 19.0241 5.85274C18.9651 5.43919 18.8231 5.04186 18.6065 4.6847C18.3899 4.32754 18.1031 4.01794 17.7636 3.77458C17.4241 3.53122 17.0389 3.35913 16.6311 3.26869C16.2232 3.17825 15.8013 3.17134 15.3908 3.24836L3.05469 5.35445H3.04062C2.26628 5.50253 1.57769 5.94064 1.11547 6.5793C1.81184 6.08398 2.64544 5.81835 3.5 5.81945ZM18.5 6.94445H3.5C2.70462 6.94532 1.94206 7.26167 1.37964 7.82409C0.817218 8.38651 0.500869 9.14907 0.5 9.94445V18.9445C0.500869 19.7398 0.817218 20.5024 1.37964 21.0648C1.94206 21.6272 2.70462 21.9436 3.5 21.9445H18.5C19.2954 21.9436 20.0579 21.6272 20.6204 21.0648C21.1828 20.5024 21.4991 19.7398 21.5 18.9445V9.94445C21.4991 9.14907 21.1828 8.38651 20.6204 7.82409C20.0579 7.26167 19.2954 6.94532 18.5 6.94445ZM16.2734 15.9445C15.9768 15.9445 15.6868 15.8565 15.4401 15.6917C15.1934 15.5268 15.0011 15.2926 14.8876 15.0185C14.7741 14.7444 14.7444 14.4428 14.8023 14.1518C14.8601 13.8608 15.003 13.5936 15.2128 13.3838C15.4226 13.174 15.6898 13.0312 15.9808 12.9733C16.2718 12.9154 16.5734 12.9451 16.8475 13.0586C17.1216 13.1722 17.3558 13.3644 17.5206 13.6111C17.6855 13.8578 17.7734 14.1478 17.7734 14.4445C17.7734 14.8423 17.6154 15.2238 17.3341 15.5051C17.0528 15.7864 16.6713 15.9445 16.2734 15.9445Z" fill="#1A1A1A"/>
<path d="M1 12.1641V7.5C1 6.48422 1.5625 4.78125 3.51484 4.41234C5.17188 4.10156 6.8125 4.10156 6.8125 4.10156C6.8125 4.10156 7.89062 4.85156 7 4.85156C6.10938 4.85156 6.13281 6 7 6C7.86719 6 7 7.10156 7 7.10156L3.50781 11.0625L1 12.1641Z" fill="#1A1A1A"/>
</svg>
